<mxfile host="app.diagrams.net" modified="2022-09-26T02:52:16.520Z" agent="5.0 (Macintosh; Intel Mac OS X 10_15_7) AppleWebKit/605.1.15 (KHTML, like Gecko) Version/16.0 Safari/605.1.15" etag="9F6M-CfjlnI0Y5qxrtmM" version="20.3.6" type="github">
  <diagram id="Kh1Igy-AzxtyMvEr5vgm" name="Page-1">
    <mxGraphModel dx="848" dy="514" grid="1" gridSize="10" guides="1" tooltips="1" connect="1" arrows="1" fold="1" page="1" pageScale="1" pageWidth="850" pageHeight="1100" math="0" shadow="0">
      <root>
        <mxCell id="0" />
        <mxCell id="1" parent="0" />
        <mxCell id="S4ykc2VBwH_TTjgMr_4d-1" value="" style="verticalLabelPosition=bottom;verticalAlign=top;html=1;shadow=0;dashed=0;strokeWidth=1;shape=mxgraph.android.phone2;strokeColor=#c0c0c0;" parent="1" vertex="1">
          <mxGeometry x="120" y="145" width="200" height="390" as="geometry" />
        </mxCell>
        <mxCell id="S4ykc2VBwH_TTjgMr_4d-2" value="Math class" style="rounded=0;whiteSpace=wrap;html=1;fillColor=#ffe6cc;strokeColor=#d79b00;" parent="1" vertex="1">
          <mxGeometry x="130" y="320" width="180" height="40" as="geometry" />
        </mxCell>
        <mxCell id="S4ykc2VBwH_TTjgMr_4d-3" value="Going for a hike" style="rounded=0;whiteSpace=wrap;html=1;fillColor=#d5e8d4;strokeColor=#82b366;" parent="1" vertex="1">
          <mxGeometry x="130" y="230" width="180" height="40" as="geometry" />
        </mxCell>
        <mxCell id="S4ykc2VBwH_TTjgMr_4d-4" value="" style="verticalLabelPosition=bottom;verticalAlign=top;html=1;shadow=0;dashed=0;strokeWidth=1;shape=mxgraph.android.phone2;strokeColor=#c0c0c0;direction=south;" parent="1" vertex="1">
          <mxGeometry x="330" y="220" width="390" height="200" as="geometry" />
        </mxCell>
        <mxCell id="S4ykc2VBwH_TTjgMr_4d-5" value="Single View" style="text;html=1;strokeColor=none;fillColor=none;align=center;verticalAlign=middle;whiteSpace=wrap;rounded=0;" parent="1" vertex="1">
          <mxGeometry x="175" y="150" width="90" height="30" as="geometry" />
        </mxCell>
        <mxCell id="S4ykc2VBwH_TTjgMr_4d-6" value="Multiple view for week" style="text;html=1;strokeColor=none;fillColor=none;align=center;verticalAlign=middle;whiteSpace=wrap;rounded=0;" parent="1" vertex="1">
          <mxGeometry x="425" y="200" width="160" height="30" as="geometry" />
        </mxCell>
        <mxCell id="S4ykc2VBwH_TTjgMr_4d-7" value="school" style="rounded=0;whiteSpace=wrap;html=1;fillColor=#fff2cc;strokeColor=#d6b656;" parent="1" vertex="1">
          <mxGeometry x="370" y="380" width="70" height="20" as="geometry" />
        </mxCell>
        <mxCell id="S4ykc2VBwH_TTjgMr_4d-8" value="Math" style="rounded=0;whiteSpace=wrap;html=1;fillColor=#dae8fc;strokeColor=#6c8ebf;" parent="1" vertex="1">
          <mxGeometry x="440" y="340" width="80" height="20" as="geometry" />
        </mxCell>
        <mxCell id="S4ykc2VBwH_TTjgMr_4d-9" value="Hike" style="rounded=1;whiteSpace=wrap;html=1;fillColor=#d5e8d4;strokeColor=#82b366;" parent="1" vertex="1">
          <mxGeometry x="500" y="270" width="60" height="20" as="geometry" />
        </mxCell>
        <mxCell id="S4ykc2VBwH_TTjgMr_4d-10" value="Data Storage" style="text;html=1;strokeColor=none;fillColor=none;align=center;verticalAlign=middle;whiteSpace=wrap;rounded=0;" parent="1" vertex="1">
          <mxGeometry x="335" y="100" width="90" height="30" as="geometry" />
        </mxCell>
        <mxCell id="S4ykc2VBwH_TTjgMr_4d-11" value="" style="endArrow=none;dashed=1;html=1;dashPattern=1 3;strokeWidth=2;rounded=0;exitX=0.055;exitY=0.905;exitDx=0;exitDy=0;exitPerimeter=0;entryX=0.975;entryY=0.91;entryDx=0;entryDy=0;entryPerimeter=0;" parent="1" source="S4ykc2VBwH_TTjgMr_4d-4" target="S4ykc2VBwH_TTjgMr_4d-4" edge="1">
          <mxGeometry width="50" height="50" relative="1" as="geometry">
            <mxPoint x="400" y="360" as="sourcePoint" />
            <mxPoint x="450" y="310" as="targetPoint" />
          </mxGeometry>
        </mxCell>
        <mxCell id="S4ykc2VBwH_TTjgMr_4d-12" value="10" style="edgeLabel;html=1;align=center;verticalAlign=middle;resizable=0;points=[];" parent="S4ykc2VBwH_TTjgMr_4d-11" vertex="1" connectable="0">
          <mxGeometry x="-0.8156" y="3" relative="1" as="geometry">
            <mxPoint as="offset" />
          </mxGeometry>
        </mxCell>
        <mxCell id="S4ykc2VBwH_TTjgMr_4d-13" value="6" style="edgeLabel;html=1;align=center;verticalAlign=middle;resizable=0;points=[];" parent="S4ykc2VBwH_TTjgMr_4d-11" vertex="1" connectable="0">
          <mxGeometry x="-0.3808" y="4" relative="1" as="geometry">
            <mxPoint as="offset" />
          </mxGeometry>
        </mxCell>
        <mxCell id="S4ykc2VBwH_TTjgMr_4d-14" value="4" style="edgeLabel;html=1;align=center;verticalAlign=middle;resizable=0;points=[];" parent="S4ykc2VBwH_TTjgMr_4d-11" vertex="1" connectable="0">
          <mxGeometry x="0.2281" y="1" relative="1" as="geometry">
            <mxPoint as="offset" />
          </mxGeometry>
        </mxCell>
        <mxCell id="S4ykc2VBwH_TTjgMr_4d-15" value="1" style="edgeLabel;html=1;align=center;verticalAlign=middle;resizable=0;points=[];" parent="S4ykc2VBwH_TTjgMr_4d-11" vertex="1" connectable="0">
          <mxGeometry x="0.9131" relative="1" as="geometry">
            <mxPoint as="offset" />
          </mxGeometry>
        </mxCell>
        <mxCell id="S4ykc2VBwH_TTjgMr_4d-16" value="m" style="text;html=1;align=center;verticalAlign=middle;resizable=0;points=[];autosize=1;strokeColor=none;fillColor=none;" parent="1" vertex="1">
          <mxGeometry x="385" y="215" width="30" height="30" as="geometry" />
        </mxCell>
        <mxCell id="S4ykc2VBwH_TTjgMr_4d-17" value="w" style="text;html=1;align=center;verticalAlign=middle;resizable=0;points=[];autosize=1;strokeColor=none;fillColor=none;" parent="1" vertex="1">
          <mxGeometry x="450" y="215" width="30" height="30" as="geometry" />
        </mxCell>
        <mxCell id="S4ykc2VBwH_TTjgMr_4d-18" value="Math" style="rounded=0;whiteSpace=wrap;html=1;fillColor=#dae8fc;strokeColor=#6c8ebf;" parent="1" vertex="1">
          <mxGeometry x="560" y="340" width="80" height="20" as="geometry" />
        </mxCell>
        <mxCell id="S4ykc2VBwH_TTjgMr_4d-19" value="school" style="rounded=0;whiteSpace=wrap;html=1;fillColor=#fff2cc;strokeColor=#d6b656;" parent="1" vertex="1">
          <mxGeometry x="610" y="240" width="70" height="20" as="geometry" />
        </mxCell>
        <mxCell id="S4ykc2VBwH_TTjgMr_4d-23" value="" style="endArrow=classic;html=1;rounded=0;exitX=0.5;exitY=1;exitDx=0;exitDy=0;entryX=0;entryY=0.2;entryDx=0;entryDy=0;entryPerimeter=0;" parent="1" source="S4ykc2VBwH_TTjgMr_4d-7" edge="1" target="S4ykc2VBwH_TTjgMr_4d-25">
          <mxGeometry width="50" height="50" relative="1" as="geometry">
            <mxPoint x="400" y="360" as="sourcePoint" />
            <mxPoint x="460" y="480" as="targetPoint" />
          </mxGeometry>
        </mxCell>
        <mxCell id="S4ykc2VBwH_TTjgMr_4d-25" value="School" style="swimlane;fontStyle=0;childLayout=stackLayout;horizontal=1;startSize=30;horizontalStack=0;resizeParent=1;resizeParentMax=0;resizeLast=0;collapsible=1;marginBottom=0;" parent="1" vertex="1">
          <mxGeometry x="500" y="440" width="140" height="120" as="geometry" />
        </mxCell>
        <mxCell id="S4ykc2VBwH_TTjgMr_4d-26" value="Time" style="text;strokeColor=none;fillColor=none;align=left;verticalAlign=middle;spacingLeft=4;spacingRight=4;overflow=hidden;points=[[0,0.5],[1,0.5]];portConstraint=eastwest;rotatable=0;" parent="S4ykc2VBwH_TTjgMr_4d-25" vertex="1">
          <mxGeometry y="30" width="140" height="30" as="geometry" />
        </mxCell>
        <mxCell id="S4ykc2VBwH_TTjgMr_4d-27" value="Location" style="text;strokeColor=none;fillColor=none;align=left;verticalAlign=middle;spacingLeft=4;spacingRight=4;overflow=hidden;points=[[0,0.5],[1,0.5]];portConstraint=eastwest;rotatable=0;" parent="S4ykc2VBwH_TTjgMr_4d-25" vertex="1">
          <mxGeometry y="60" width="140" height="30" as="geometry" />
        </mxCell>
        <mxCell id="S4ykc2VBwH_TTjgMr_4d-28" value="Caption" style="text;strokeColor=none;fillColor=none;align=left;verticalAlign=middle;spacingLeft=4;spacingRight=4;overflow=hidden;points=[[0,0.5],[1,0.5]];portConstraint=eastwest;rotatable=0;" parent="S4ykc2VBwH_TTjgMr_4d-25" vertex="1">
          <mxGeometry y="90" width="140" height="30" as="geometry" />
        </mxCell>
        <mxCell id="i5u_gUFPdWGngSB0cyZX-1" value="" style="verticalLabelPosition=bottom;verticalAlign=top;html=1;shadow=0;dashed=0;strokeWidth=1;shape=mxgraph.android.phone2;strokeColor=#c0c0c0;" vertex="1" parent="1">
          <mxGeometry x="130" y="570" width="200" height="390" as="geometry" />
        </mxCell>
        <mxCell id="i5u_gUFPdWGngSB0cyZX-2" value="New Appointment" style="text;html=1;align=center;verticalAlign=middle;resizable=0;points=[];autosize=1;strokeColor=none;fillColor=none;" vertex="1" parent="1">
          <mxGeometry x="130" y="600" width="120" height="30" as="geometry" />
        </mxCell>
        <mxCell id="i5u_gUFPdWGngSB0cyZX-3" value="T Appointment Name" style="text;html=1;align=center;verticalAlign=middle;resizable=0;points=[];autosize=1;strokeColor=none;fillColor=none;" vertex="1" parent="1">
          <mxGeometry x="140" y="645" width="140" height="30" as="geometry" />
        </mxCell>
        <mxCell id="i5u_gUFPdWGngSB0cyZX-4" value="Label&amp;nbsp;" style="text;html=1;align=center;verticalAlign=middle;resizable=0;points=[];autosize=1;strokeColor=none;fillColor=none;" vertex="1" parent="1">
          <mxGeometry x="150" y="675" width="60" height="30" as="geometry" />
        </mxCell>
        <mxCell id="i5u_gUFPdWGngSB0cyZX-5" value="" style="ellipse;whiteSpace=wrap;html=1;aspect=fixed;fillColor=#e1d5e7;strokeColor=#9673a6;" vertex="1" parent="1">
          <mxGeometry x="280" y="680" width="20" height="20" as="geometry" />
        </mxCell>
        <mxCell id="i5u_gUFPdWGngSB0cyZX-6" value="FreeTime" style="text;html=1;align=center;verticalAlign=middle;resizable=0;points=[];autosize=1;strokeColor=none;fillColor=none;" vertex="1" parent="1">
          <mxGeometry x="210" y="675" width="70" height="30" as="geometry" />
        </mxCell>
        <mxCell id="i5u_gUFPdWGngSB0cyZX-7" value="Status" style="text;html=1;align=center;verticalAlign=middle;resizable=0;points=[];autosize=1;strokeColor=none;fillColor=none;" vertex="1" parent="1">
          <mxGeometry x="150" y="705" width="60" height="30" as="geometry" />
        </mxCell>
        <mxCell id="i5u_gUFPdWGngSB0cyZX-8" value="Free" style="text;html=1;align=center;verticalAlign=middle;resizable=0;points=[];autosize=1;strokeColor=none;fillColor=none;" vertex="1" parent="1">
          <mxGeometry x="215" y="705" width="50" height="30" as="geometry" />
        </mxCell>
        <mxCell id="i5u_gUFPdWGngSB0cyZX-10" value="" style="ellipse;whiteSpace=wrap;html=1;aspect=fixed;fillColor=#d5e8d4;strokeColor=#82b366;" vertex="1" parent="1">
          <mxGeometry x="280" y="710" width="20" height="20" as="geometry" />
        </mxCell>
        <mxCell id="i5u_gUFPdWGngSB0cyZX-11" value="Tiime AllDay&lt;br&gt;&lt;br&gt;Start Date&lt;br&gt;&lt;br&gt;End Date" style="text;html=1;align=center;verticalAlign=middle;resizable=0;points=[];autosize=1;strokeColor=none;fillColor=none;" vertex="1" parent="1">
          <mxGeometry x="140" y="750" width="90" height="80" as="geometry" />
        </mxCell>
        <mxCell id="i5u_gUFPdWGngSB0cyZX-12" value="Time&lt;br&gt;&lt;br&gt;Time" style="text;html=1;align=center;verticalAlign=middle;resizable=0;points=[];autosize=1;strokeColor=none;fillColor=none;" vertex="1" parent="1">
          <mxGeometry x="245" y="780" width="50" height="60" as="geometry" />
        </mxCell>
        <mxCell id="i5u_gUFPdWGngSB0cyZX-13" value="Add Reminder&lt;br&gt;&lt;br&gt;&lt;br&gt;Repeat" style="text;html=1;align=center;verticalAlign=middle;resizable=0;points=[];autosize=1;strokeColor=none;fillColor=none;" vertex="1" parent="1">
          <mxGeometry x="135" y="840" width="100" height="70" as="geometry" />
        </mxCell>
        <mxCell id="i5u_gUFPdWGngSB0cyZX-14" value="" style="endArrow=classic;html=1;rounded=0;exitX=0.98;exitY=0.292;exitDx=0;exitDy=0;exitPerimeter=0;" edge="1" parent="1" source="i5u_gUFPdWGngSB0cyZX-1">
          <mxGeometry width="50" height="50" relative="1" as="geometry">
            <mxPoint x="400" y="770" as="sourcePoint" />
            <mxPoint x="450" y="684" as="targetPoint" />
          </mxGeometry>
        </mxCell>
        <mxCell id="i5u_gUFPdWGngSB0cyZX-15" value="" style="verticalLabelPosition=bottom;verticalAlign=top;html=1;shadow=0;dashed=0;strokeWidth=1;shape=mxgraph.android.phone2;strokeColor=#c0c0c0;" vertex="1" parent="1">
          <mxGeometry x="450" y="640" width="140" height="245" as="geometry" />
        </mxCell>
        <mxCell id="i5u_gUFPdWGngSB0cyZX-16" value="Label" style="text;html=1;align=center;verticalAlign=middle;resizable=0;points=[];autosize=1;strokeColor=none;fillColor=none;" vertex="1" parent="1">
          <mxGeometry x="450" y="670" width="50" height="30" as="geometry" />
        </mxCell>
        <mxCell id="i5u_gUFPdWGngSB0cyZX-17" value="Free Time&lt;br&gt;&lt;br&gt;Office Hours&lt;br&gt;&lt;br&gt;Class&amp;nbsp;&lt;br&gt;&lt;br&gt;Work&lt;br&gt;&lt;br&gt;Bed Time" style="text;html=1;align=center;verticalAlign=middle;resizable=0;points=[];autosize=1;strokeColor=none;fillColor=none;" vertex="1" parent="1">
          <mxGeometry x="475" y="705" width="90" height="140" as="geometry" />
        </mxCell>
        <mxCell id="i5u_gUFPdWGngSB0cyZX-18" value="" style="ellipse;whiteSpace=wrap;html=1;aspect=fixed;fillColor=#e1d5e7;strokeColor=#9673a6;" vertex="1" parent="1">
          <mxGeometry x="460" y="710" width="20" height="20" as="geometry" />
        </mxCell>
        <mxCell id="i5u_gUFPdWGngSB0cyZX-19" value="" style="ellipse;whiteSpace=wrap;html=1;aspect=fixed;fillColor=#d5e8d4;strokeColor=#82b366;" vertex="1" parent="1">
          <mxGeometry x="460" y="740" width="20" height="20" as="geometry" />
        </mxCell>
        <mxCell id="i5u_gUFPdWGngSB0cyZX-20" value="" style="ellipse;whiteSpace=wrap;html=1;aspect=fixed;fillColor=#f8cecc;strokeColor=#b85450;" vertex="1" parent="1">
          <mxGeometry x="460" y="770" width="20" height="20" as="geometry" />
        </mxCell>
        <mxCell id="i5u_gUFPdWGngSB0cyZX-21" value="" style="ellipse;whiteSpace=wrap;html=1;aspect=fixed;fillColor=#fff2cc;strokeColor=#d6b656;" vertex="1" parent="1">
          <mxGeometry x="460" y="800" width="20" height="20" as="geometry" />
        </mxCell>
        <mxCell id="i5u_gUFPdWGngSB0cyZX-22" value="" style="ellipse;whiteSpace=wrap;html=1;aspect=fixed;fillColor=#dae8fc;strokeColor=#6c8ebf;" vertex="1" parent="1">
          <mxGeometry x="460" y="825" width="20" height="20" as="geometry" />
        </mxCell>
      </root>
    </mxGraphModel>
  </diagram>
</mxfile>
